<svg id="visual" viewBox="0 0 1750 890" width="1750" height="890" xmlns="http://www.w3.org/2000/svg" xmlns:xlink="http://www.w3.org/1999/xlink" version="1.1"><path d="M0 126L159 81L318 72L477 108L636 117L795 90L955 81L1114 72L1273 81L1432 126L1591 99L1750 135L1750 0L1591 0L1432 0L1273 0L1114 0L955 0L795 0L636 0L477 0L318 0L159 0L0 0Z" fill="#0066ff"></path><path d="M0 206L159 152L318 143L477 152L636 161L795 135L955 126L1114 126L1273 152L1432 197L1591 179L1750 179L1750 133L1591 97L1432 124L1273 79L1114 70L955 79L795 88L636 115L477 106L318 70L159 79L0 124Z" fill="#0058f1"></path><path d="M0 304L159 250L318 250L477 215L636 224L795 206L955 188L1114 224L1273 250L1432 304L1591 259L1750 250L1750 177L1591 177L1432 195L1273 150L1114 124L955 124L795 133L636 159L477 150L318 141L159 150L0 204Z" fill="#0149e3"></path><path d="M0 437L159 357L318 384L477 366L636 384L795 339L955 366L1114 384L1273 357L1432 393L1591 410L1750 384L1750 248L1591 257L1432 302L1273 248L1114 222L955 186L795 204L636 222L477 213L318 248L159 248L0 302Z" fill="#033ad4"></path><path d="M0 704L159 571L318 553L477 562L636 597L795 562L955 580L1114 660L1273 669L1432 580L1591 624L1750 669L1750 382L1591 408L1432 391L1273 355L1114 382L955 364L795 337L636 382L477 364L318 382L159 355L0 435Z" fill="#052bc5"></path><path d="M0 838L159 838L318 802L477 802L636 811L795 838L955 802L1114 802L1273 838L1432 829L1591 838L1750 838L1750 667L1591 622L1432 578L1273 667L1114 658L955 578L795 560L636 595L477 560L318 551L159 569L0 702Z" fill="#0519b6"></path><path d="M0 891L159 891L318 891L477 891L636 891L795 891L955 891L1114 891L1273 891L1432 891L1591 891L1750 891L1750 836L1591 836L1432 827L1273 836L1114 800L955 800L795 836L636 809L477 800L318 800L159 836L0 836Z" fill="#0500a7"></path></svg>